<svg version="1.1" id="Layer_1" xmlns="http://www.w3.org/2000/svg" xmlns:xlink="http://www.w3.org/1999/xlink" viewBox="0 0 32 32" xml:space="preserve">
<g>
  <circle style="fill:#F7931A;" cx="16" cy="16" r="16"/>
  <path style="fill:#FFFFFF;" d="M19.283,14.682c0.326-2.18-1.333-3.353-3.601-4.137l0.735-2.945l-1.795-0.448l-0.715,2.866
    c-0.472-0.115-0.956-0.222-1.438-0.329l0.721-2.891L10.39,6.35L9.655,9.294c-0.389-0.09-0.774-0.179-1.15-0.268l0,0l-2.474-0.618
    l-0.478,1.912c0,0,1.335,0.307,1.308,0.323c0.73,0.182,0.864,0.665,0.842,1.047l-0.842,3.384c0.05,0.012,0.115,0.03,0.188,0.057
    c-0.048-0.012-0.094-0.025-0.14-0.037L6.01,18.1c-0.436,1.742,0.345,3.053,1.744,3.777c-0.04,0.093-0.084,0.187-0.123,0.282
    l-1.782,7.158l1.846,0.462l0.745-2.99c0.489,0.133,0.964,0.255,1.43,0.375l-0.738,2.96l1.796,0.448l0.734-2.942
    c3.064,0.582,5.367,0.347,6.33-2.424c0.782-2.23-0.039-3.518-1.651-4.353C18.583,17.34,19.053,16.182,19.283,14.682z
    M16.113,22.51c-0.517,2.077-4.011,0.954-5.147,0.671l0.919-3.679C13.052,20.002,16.661,20.411,16.113,22.51z M16.758,14.644
    c-0.472,1.888-3.391,0.929-4.34,0.694l0.836-3.361C14.205,12.286,17.25,12.565,16.758,14.644z"/>
</g>
</svg>
